<?xml version="1.0" encoding="UTF-8" standalone="no"?>
<svg width="36px" height="36px" viewBox="0 0 36 36" version="1.1" xmlns="http://www.w3.org/2000/svg" xmlns:xlink="http://www.w3.org/1999/xlink" xmlns:sketch="http://www.bohemiancoding.com/sketch/ns">
    <!-- Generator: Sketch 3.1.1 (8761) - http://www.bohemiancoding.com/sketch -->
    <title>ico_search</title>
    <desc>Created with Sketch.</desc>
    <defs></defs>
    <g id="Page-1" stroke="none" stroke-width="1" fill="none" fill-rule="evenodd" sketch:type="MSPage">
        <g id="Search-State-1" sketch:type="MSArtboardGroup" transform="translate(-28.000000, -126.000000)" fill="#5A544F">
            <path d="M63.8381416,157.436839 L55.8178517,149.416549 C55.6020405,149.200738 55.2492723,149.200738 55.0334611,149.416549 L53.9585555,150.491455 L50.9870018,147.519901 C55.3613281,142.394386 55.1351414,134.664611 50.2897657,129.819235 C45.1974522,124.726922 36.9115485,124.726922 31.8192351,129.819235 C26.7269216,134.911549 26.7269216,143.199527 31.8192351,148.291841 C36.6646108,153.135141 44.3923106,153.361328 49.5199009,148.987002 L52.4914546,151.958555 L51.416549,153.035536 C51.1986627,153.251347 51.1986627,153.602041 51.416549,153.817852 L59.4347638,161.838142 C59.6526501,162.053953 60.0033432,162.053953 60.2191544,161.838142 L63.8381416,158.22123 C64.0539528,158.003343 64.0539528,157.65265 63.8381416,157.436839 L63.8381416,157.436839 L63.8381416,157.436839 Z M33.286336,146.82474 C29.0033144,142.539643 29.0033144,135.569358 33.286336,131.286336 C37.5693576,127.003314 44.5396432,127.003314 48.8226648,131.286336 C53.1056864,135.569358 53.1056864,142.539643 48.8226648,146.822665 C44.5396432,151.107761 37.5693576,151.107761 33.286336,146.82474 L33.286336,146.82474 L33.286336,146.82474 Z" id="ico_search" sketch:type="MSShapeGroup"></path>
        </g>
    </g>
</svg>