<?xml version="1.0" encoding="UTF-8" standalone="no"?>
<svg width="36px" height="36px" viewBox="0 0 36 36" version="1.1" xmlns="http://www.w3.org/2000/svg" xmlns:xlink="http://www.w3.org/1999/xlink" xmlns:sketch="http://www.bohemiancoding.com/sketch/ns">
    <!-- Generator: Sketch 3.1.1 (8761) - http://www.bohemiancoding.com/sketch -->
    <title>ico_cog</title>
    <desc>Created with Sketch.</desc>
    <defs></defs>
    <g id="Page-1" stroke="none" stroke-width="1" fill="none" fill-rule="evenodd" sketch:type="MSPage">
        <g id="Search-State-1" sketch:type="MSArtboardGroup" transform="translate(-574.000000, -30.000000)" fill="#FFFFFF">
            <path d="M610,50.215 L610,45.716 L604.644,44.841 C604.327,43.572 603.829,42.38 603.173,41.288 L606.295,36.839 L603.112,33.658 L598.72,36.816 C597.625,36.153 596.425,35.647 595.148,35.329 L594.214,30 L589.714,30 L588.847,35.312 C587.569,35.626 586.362,36.124 585.264,36.784 L580.885,33.655 L577.703,36.836 L580.783,41.241 C580.117,42.344 579.61,43.548 579.289,44.835 L574,45.716 L574,50.215 L579.283,51.152 C579.601,52.435 580.108,53.64 580.777,54.744 L577.654,59.111 L580.836,62.295 L585.246,59.206 C586.348,59.867 587.551,60.37 588.829,60.685 L589.714,66 L594.214,66 L595.159,60.671 C596.431,60.349 597.632,59.843 598.723,59.178 L603.165,62.295 L606.346,59.111 L603.176,54.709 C603.832,53.617 604.33,52.424 604.644,51.155 L610,50.215 L610,50.215 Z M593.268,57.669 C586.891,58.473 581.526,53.109 582.33,46.732 C582.878,42.387 586.387,38.879 590.732,38.331 C597.109,37.527 602.474,42.891 601.67,49.268 C601.122,53.613 597.613,57.121 593.268,57.669 L593.268,57.669 Z" id="ico_cog" sketch:type="MSShapeGroup"></path>
        </g>
    </g>
</svg>