<?xml version="1.0" encoding="UTF-8" standalone="no"?>
<svg width="36px" height="36px" viewBox="0 0 36 36" version="1.1" xmlns="http://www.w3.org/2000/svg" xmlns:xlink="http://www.w3.org/1999/xlink" xmlns:sketch="http://www.bohemiancoding.com/sketch/ns">
    <!-- Generator: Sketch 3.1.1 (8761) - http://www.bohemiancoding.com/sketch -->
    <title>ico_geonav</title>
    <desc>Created with Sketch.</desc>
    <defs></defs>
    <g id="Page-1" stroke="none" stroke-width="1" fill="none" fill-rule="evenodd" sketch:type="MSPage">
        <g id="Search-State-1" sketch:type="MSArtboardGroup" transform="translate(-574.000000, -126.000000)" fill="#007FA9">
            <path d="M609.995253,126.936113 C609.996253,126.851113 609.994253,126.766113 609.972253,126.684113 C609.969253,126.675113 609.963253,126.667113 609.960253,126.658113 C609.932253,126.564113 609.892253,126.473113 609.834253,126.392113 C609.832253,126.389113 609.832253,126.387113 609.831253,126.385113 C609.653253,126.125113 609.355253,125.996113 609.053253,126.004113 C609.034253,126.005113 609.015253,125.999113 608.996253,126.000113 C608.941253,126.005113 608.889253,126.028113 608.835253,126.042113 C608.783253,126.056113 608.730253,126.063113 608.681253,126.086113 C608.676253,126.089113 608.671253,126.088113 608.666253,126.091113 L574.519253,142.180113 C574.161253,142.356113 573.955253,142.741113 574.008253,143.137113 C574.037253,143.344113 574.131253,143.529113 574.272253,143.670113 C574.401253,143.798113 574.567253,143.889113 574.754253,143.924113 L589.290253,146.710113 L592.076253,161.246113 C592.111253,161.433113 592.202253,161.599113 592.330253,161.728113 C592.471253,161.869113 592.656253,161.963113 592.863253,161.992113 C593.259253,162.045113 593.644253,161.839113 593.820253,161.481113 L609.909253,127.334113 C609.912253,127.329113 609.912253,127.324113 609.914253,127.319113 C609.935253,127.273113 609.942253,127.224113 609.955253,127.175113 C609.972253,127.118113 609.995253,127.063113 610.000253,127.005113 C610.002253,126.982113 609.995253,126.959113 609.995253,126.936113 L609.995253,126.936113 Z M577.829253,142.624113 L604.468253,130.220113 L589.774253,144.914113 L577.829253,142.624113 L577.829253,142.624113 Z M593.376253,158.171113 L591.087253,146.226113 L605.780253,131.533113 L593.376253,158.171113 L593.376253,158.171113 Z" id="ico_geonav" sketch:type="MSShapeGroup"></path>
        </g>
    </g>
</svg>