<?xml version="1.0" encoding="UTF-8" standalone="no"?>
<svg width="60px" height="36px" viewBox="0 0 60 36" version="1.1" xmlns="http://www.w3.org/2000/svg" xmlns:xlink="http://www.w3.org/1999/xlink" xmlns:sketch="http://www.bohemiancoding.com/sketch/ns">
    <!-- Generator: Sketch 3.1.1 (8761) - http://www.bohemiancoding.com/sketch -->
    <title>logo</title>
    <desc>Created with Sketch.</desc>
    <defs></defs>
    <g id="Page-1" stroke="none" stroke-width="1" fill="none" fill-rule="evenodd" sketch:type="MSPage">
        <g id="Search-State-1" sketch:type="MSArtboardGroup" transform="translate(-20.000000, -30.000000)" fill="#FFFFFF">
            <g id="logo" sketch:type="MSLayerGroup" transform="translate(20.000000, 30.000000)">
                <path d="M54.984,28.4016 C53.568,26.8728 51.3168,23.8032 51.3168,23.8032 C53.304,23.244 55.0848,22.2264 56.5008,20.7984 C58.776,18.5304 60.012,15.3144 60,11.8536 C60.0288,8.2584 58.4568,5.028 55.9728,3.0048 C53.5008,0.9576 50.3088,0.0072 46.9848,0 L41.136,0 C35.64,0.012 31.2,4.4736 31.188,9.9816 L31.188,34.6224 L37.824,34.6224 L37.824,27.6384 C37.8288,25.8312 39.336,24.3144 41.1408,24.3096 L43.788,24.3096 L50.916,33.0792 L51.4128,33.6936 C51.9528,34.212 52.6608,34.5552 53.4528,34.6224 L53.4528,34.6272 L53.5968,34.6272 C53.6448,34.6272 53.688,34.6344 53.736,34.6344 C53.784,34.6344 53.8248,34.6272 53.8728,34.6272 L57.7968,34.6272 L57.8088,29.2464 C57.8088,29.2464 56.1888,29.7024 54.984,28.4016 L54.984,28.4016 Z M47.5848,17.6568 L41.136,17.6568 C39.972,17.6568 38.856,18.132 37.8168,18.5064 L37.8168,9.9864 C37.824,8.1816 39.3288,6.6648 41.136,6.6576 L46.9848,6.6576 C49.056,6.6576 50.712,7.2672 51.7368,8.1264 C52.752,9.012 53.328,10.0416 53.364,11.8536 C53.352,13.7976 52.7328,15.1464 51.8088,16.092 C50.868,17.0256 49.5288,17.6448 47.5848,17.6568 L47.5848,17.6568 Z" id="Fill-1" sketch:type="MSShapeGroup"></path>
                <path id="Fill-2" sketch:type="MSShapeGroup"></path>
                <path d="M26.88,1.0728 L20.3208,1.0728 L20.316,11.8296 C20.1888,15.84 16.452,17.1384 13.4688,17.1816 C10.0632,17.1336 6.468,15.2376 6.468,10.0296 L6.468,1.0728 L0,1.0728 L0,10.0296 C0,14.0928 1.404,17.5656 4.0488,20.0712 C6.4488,22.3416 9.7368,23.6112 13.332,23.6712 L13.464,23.6712 L13.596,23.6712 C16.008,23.628 19.5528,22.0512 20.244,20.6544 L20.244,23.616 C20.244,27.5424 15.264,30.1056 13.9272,30.78 L14.0232,30.8952 C13.9872,30.912 13.956,30.924 13.9272,30.9432 L18.096,36 C20.508,34.5864 26.8488,31.7688 26.88,22.8888 L26.88,1.0728" id="Fill-3" sketch:type="MSShapeGroup"></path>
            </g>
        </g>
    </g>
</svg>