<?xml version="1.0" encoding="utf-8"?>
<!-- Generator: Adobe Illustrator 18.1.0, SVG Export Plug-In . SVG Version: 6.00 Build 0)  -->
<!DOCTYPE svg PUBLIC "-//W3C//DTD SVG 1.1//EN" "http://www.w3.org/Graphics/SVG/1.1/DTD/svg11.dtd">
<svg version="1.1" id="Layer_1" xmlns="http://www.w3.org/2000/svg" xmlns:xlink="http://www.w3.org/1999/xlink" x="0px" y="0px"
	 width="60px" height="60px" viewBox="0 0 60 60" enable-background="new 0 0 60 60" xml:space="preserve">
<path d="M57.4,35.8C57,35,56,35.2,55.2,34.5l0,0c-0.3-0.3,0-0.4-0.6-0.9c-0.6-0.6-0.8-0.2-1.3-0.9c-0.7-1,0.6-2-0.1-2.9
	c-1.4-1.9-0.4-2.7-1.6-3.5c-1.2-0.8-3-0.2-3.5-0.8s-1.4-1.2-1.7-1.7c-0.6-0.9-2.5-1.1-3.4-0.7c-0.9,0.4-1.3,0.3-3.3-0.2
	c-1.5-0.4-4.5-2.8-6.9-4.2c-1.5-1-3.5-1.6-5.8-1.6c-3.5,0-7.1,1.9-7.9,3.6c-0.3,0.7-0.9,0.4-1.6,1.1c-0.4,0.4-0.3,1.1-0.6,1.7
	s-1.7,1.5-2,2.6c-0.3,1.3-0.9,1.3-2.8,1.9c-2.7,0.9-1.6,2.6-4.4,2.3c-2.9-0.2-2.6,0.3-3.8,1.2c-1.1,0.9-2.2,1.3-1.6,2.7
	c0.2,0.4,0.4,0.7,1,1s0.3,0.9,0.8,1.1c0.4,0.1,0.7,0.8,0.8,1.2c0.3,1.2,1.4,0.9,2.1,1.1C7.7,39,8,39.4,8.3,40.3
	c0.3,1,0.6,1.6,1.9,1.7c1.2,0.1,2.1,1.2,4.1,0.6c1.5-0.4,2.1-0.4,4.2-0.6c4.8-0.4,4.4,0.7,7.8,0.7c7.6,0,8.3-0.7,10.6-0.7
	c3.9,0,4.9,0.9,8.4,0.4c4-0.5,3.8-2.3,8.4-1.6C59.2,41.7,57.9,37.2,57.4,35.8z"/>
</svg>
