<?xml version="1.0" encoding="utf-8"?>
<!-- Generator: Adobe Illustrator 18.1.0, SVG Export Plug-In . SVG Version: 6.00 Build 0)  -->
<!DOCTYPE svg PUBLIC "-//W3C//DTD SVG 1.1//EN" "http://www.w3.org/Graphics/SVG/1.1/DTD/svg11.dtd">
<svg version="1.1" id="Layer_1" xmlns="http://www.w3.org/2000/svg" xmlns:xlink="http://www.w3.org/1999/xlink" x="0px" y="0px"
	 width="60px" height="60px" viewBox="-569 421 60 60" enable-background="new -569 421 60 60" xml:space="preserve">
<path d="M-516.2,459.3c-0.1-0.6-0.3-1.1-0.5-1.7c-0.6-1.7-1.3-3.3-3-4.1c-0.7-0.3-1.5-0.6-1.8-1.2c-0.2-0.4-0.2-0.9-0.2-1.3
	c-0.5-2.2-3.6-3.1-5.3-4.2c-1.5-0.9-3-2.5-2.8-4.3c-2.3-0.4-4.4-1.1-6.5-2.1c-0.1-0.1-0.2-0.1-0.3-0.2c-0.1-0.1-0.1-0.3-0.2-0.4
	c-0.1-0.6-0.4-1.2-0.9-1.5c-0.6-0.3-1.3-0.2-1.8-0.7c-0.8-0.7,0.2-1.7-1.2-1.9c-2.5-0.3-5.4-0.5-7.4,1.2c-1.1,0.9-1.8,2.3-3,3.2
	c-0.5,0.4-1.1,0.6-1.6,1c-1.7,1.5-1.2,4.1-1.3,6.1c0,0.4-0.2,0.8-0.5,1.1c-0.1,0.1-1,0.3-1,0.1c0,1.4-0.4,2.7-1.2,3.8
	c-0.5,0.7-1.3,1-1.9,1.5c-0.3,0.2-0.6,0.4-0.8,0.8c-0.2,0.3-0.1,0.8-0.4,1.1c-0.6,0.5-1.4-0.2-1.8,0.8c-0.6,1.9,0,5.5,2.1,6.4
	c0.7,0.3,1.5,0.3,2,0.9c0.4,0.5,0.5,1.1,0.8,1.6c0.3,0.4,0.9,0.7,1.5,0.8c3.5,0.9,6.9,0,10.4-0.4c3.8-0.4,7.6-0.6,11.4-0.4
	c2.2,0.1,4.4,0.5,6.6,0.8c2.1,0.3,4.4,0,6.4-0.6c1.6-0.4,3.2-1.2,3.9-2.6C-515.9,461.9-515.9,460.6-516.2,459.3z"/>
</svg>
