<?xml version="1.0" encoding="utf-8"?>
<!-- Generator: Adobe Illustrator 18.1.0, SVG Export Plug-In . SVG Version: 6.00 Build 0)  -->
<!DOCTYPE svg PUBLIC "-//W3C//DTD SVG 1.1//EN" "http://www.w3.org/Graphics/SVG/1.1/DTD/svg11.dtd">
<svg version="1.1" id="Layer_1" xmlns="http://www.w3.org/2000/svg" xmlns:xlink="http://www.w3.org/1999/xlink" x="0px" y="0px"
	 width="60px" height="60px" viewBox="0 0 60 60" enable-background="new 0 0 60 60" xml:space="preserve">
<path d="M2.9,35.1c0.4-0.9,1.4-0.6,2.2-1.3l0,0c0.3-0.3,0-0.4,0.6-0.9c0.6-0.6,0.8-0.2,1.3-0.9c0.7-1,0.4-2,1.1-2.9
	c1.4-1.9,0.4-2.7,1.6-3.5c1.2-0.8,3-0.2,3.5-0.8c0.6-0.5,1.4-1.2,1.8-1.7c0.6-0.9,1.5-1.1,2.4-0.7c0.9,0.4,1.3,0.3,3.3-0.2
	c1.5-0.4,3.9,0.3,6.4-1.1c1.5-1,2.5-3.2,4.7-3.2c3.5,0,6,0.5,9.5,2.2c0.6,0.3,0.9,0.4,1.6,1.1c0.4,0.4,0.3,1.1,0.6,1.7
	s1.8,1.5,2,2.6c0.3,1.3,0.9,1.3,2.8,1.9c2.7,0.9,1.6,2.6,4.5,2.3c2.9-0.2,1.6,0.3,2.8,1.2c1.1,0.9,2.2,1.3,1.6,2.7
	c-0.2,0.4-0.4,0.7-1,1c-0.5,0.3-0.3,0.9-0.8,1.1c-0.4,0.1,0.2,0.8,0.1,1.2c-0.3,1.2-1.4,0.9-2.1,1.1c-0.7,0.2-1.1,0.6-1.3,1.6
	c-0.3,1-0.6,1.6-1.9,1.7c-1.2,0.1-2.1,1.2-4.1,0.6c-1.5-0.4-2.2-1.3-4.3-0.6c-5.3,1.8-3.9,0-7.2-0.7c-7.5-1.5-8,0.7-10.3,0.7
	c-4,0-5-0.4-8.5-0.9c-4-0.5-3.8-1-8.4-0.3C2,41,2.3,36.5,2.9,35.1z"/>
</svg>
